<svg width="382" height="72" viewBox="0 0 382 72" fill="none" xmlns="http://www.w3.org/2000/svg">
<g clip-path="url(#clip0_1_73)">
<g clip-path="url(#clip1_1_73)">
<path d="M34.5983 0.123276C35.1783 0.0260253 55.6291 11.8734 57.8457 13.0489C60.1845 14.2891 67.1352 18.1582 69.2668 19.7475C69.3359 20.9434 69.2907 22.5957 69.2901 23.8205L69.2888 31.165L69.2956 51.9335C68.2839 53.2363 64.9382 54.878 63.3871 55.7682L53.0247 61.6973C49.3156 63.8393 45.593 65.9574 41.8572 68.0523C41.1415 68.4615 40.5181 68.9538 39.834 69.3618C38.8399 69.9545 37.6761 70.4952 36.6467 71.0456C36.2401 71.2634 35.7856 71.2328 35.3395 71.2053C34.9364 69.9239 35.2028 69.4927 35.252 68.2168C35.2896 67.2388 35.2703 66.1904 35.2752 65.2069C36.0537 64.084 44.4105 59.7156 46.1518 58.7208L52.909 54.868C53.5408 54.5061 54.1606 54.0816 54.7943 53.7275L58.0206 51.8851C58.5905 51.5633 60.9423 50.405 60.9711 49.7567C60.4218 48.7374 56.3859 46.9382 55.2364 46.3098C53.6843 45.4611 52.046 44.5746 50.4854 43.7196C49.9246 43.4124 49.5386 43.2332 49.0456 42.7799C48.8164 41.938 48.8125 41.3786 49.6554 40.9266C50.9283 40.244 52.364 39.3083 53.7435 38.9068C55.144 38.6094 56.1842 39.7414 57.2458 40.3692C58.9884 41.3998 60.7387 42.4445 62.6072 43.2002C62.7779 43.2692 62.9259 43.1806 63.0531 43.092C63.2715 42.3437 63.17 39.6758 63.17 38.7426L63.1657 32.028C63.1644 30.4048 63.1663 28.7777 63.1559 27.1541C63.1534 26.7662 63.1963 26.1414 62.8158 25.9229C62.3351 25.8424 59.7955 27.6009 59.1849 27.9131C58.4193 28.3046 57.4537 28.7764 56.6969 29.1877C52.8627 31.2722 49.0532 33.4017 45.2692 35.5759C44.3735 36.0528 43.5589 36.6379 42.6622 37.1527C41.8632 37.6113 40.9486 37.9654 40.1413 38.4464C38.6551 39.3393 36.5108 40.7538 34.8383 41.1167C33.7224 41.3589 30.3889 39.0651 29.2758 38.4771C28.3684 37.9976 27.3505 37.1687 26.4109 36.6942C24.5428 35.751 22.741 34.7842 20.9148 33.7694C20.3051 33.4269 19.7165 33.0092 19.1019 32.6834C16.8187 31.4726 14.5952 30.1597 12.3148 28.9424C11.1859 28.3026 10.0459 27.6223 8.89164 27.0289C8.26018 26.7042 7.18143 25.6136 6.55731 26.0985C6.22586 26.7696 6.50856 32.5986 6.40225 33.8597C6.08983 37.5645 5.9971 41.818 6.47712 45.5262C6.52097 45.865 6.76765 46.0394 7.01261 46.2565C7.90543 45.932 8.4019 45.427 9.09783 45.045C10.1671 44.458 12.5844 42.8702 13.6193 42.5399C14.8847 42.9058 19.2602 45.1858 20.1104 46.1259C20.1675 46.8043 20.1326 47.891 20.131 48.5983L20.1227 53.0661C20.1219 53.8698 20.0779 55.0048 20.2261 55.761C20.3976 55.9851 20.5826 56.1369 20.793 56.3246C22.756 55.9613 24.7259 53.744 26.5161 53.5746C26.8373 53.5441 30.3625 55.3804 30.8293 55.6724C31.1448 55.8697 31.3505 56.0983 31.5965 56.4148C31.8877 58.103 31.0329 58.4113 29.7255 59.1319C29.2059 59.4184 28.652 59.6679 28.1228 59.937L24.4539 61.8246C23.4809 62.3371 21.0938 64.1115 20.1621 63.4699C18.7453 62.4949 15.4319 61.2515 14.5444 59.8294C13.7907 58.6213 14.6323 50.4672 13.991 49.7254C13.1148 49.3854 7.0202 53.9973 5.57861 53.839C3.96618 53.662 1.12947 52.3246 0.42631 50.8516C-0.000182892 49.9582 0.108029 46.9724 0.106414 45.831L0.0965423 38.8922L0.0864503 26.3763C0.084591 24.263 0.0335002 21.9534 0.0866153 19.8549C1.75535 18.7088 3.23512 17.9128 4.95987 16.9059L11.3819 13.2374C12.6451 12.5137 13.788 11.8055 15.0993 11.1353C16.3631 10.4895 17.6515 9.45536 18.9383 8.79155C19.6007 8.44988 20.2566 8.08363 20.9195 7.74185C24.099 5.75934 27.5056 4.15348 30.6655 2.14115C31.8504 1.38659 33.3457 0.767902 34.5983 0.123276ZM34.9896 34.0011C36.565 33.4046 39.5689 31.5919 41.1681 30.6824L50.5006 25.4206C52.2887 24.4057 54.1116 23.4729 55.8787 22.4188C56.4843 22.0576 57.6313 21.459 58.1424 21.0139C58.0583 20.3421 55.5943 19.1388 54.9468 18.7698L49.822 15.8434L41.3444 11.0662C39.5133 10.0212 37.659 8.92403 35.7997 7.93403C35.2639 7.6487 34.8683 7.47493 34.2671 7.49964C33.707 7.72325 32.2596 8.61741 31.6431 8.97131L26.1034 12.1443L17.3374 17.0765C16.3519 17.63 11.5277 20.1986 11.2408 20.827C11.2446 20.9491 11.2203 21.0213 11.3342 21.0891C11.7622 21.3433 12.2398 21.5763 12.6484 21.8631C13.7763 22.6547 14.9325 23.2061 16.1178 23.866C18.0957 24.9772 20.0834 26.0707 22.0807 27.1465C26.066 29.3403 29.9548 31.7252 33.9715 33.8642C34.3757 34.0795 34.5393 34.1488 34.9896 34.0011Z" fill="white"/>
</g>
</g>
<path d="M98.0083 60.514C94.9987 60.514 92.3653 59.9913 90.1082 58.946C87.8837 57.868 86.0191 56.447 84.5143 54.683C83.0096 52.8863 81.881 50.8773 81.1286 48.656C80.3762 46.4347 80 44.1643 80 41.845C80 39.5583 80.3762 37.3043 81.1286 35.083C81.881 32.8617 83.0096 30.869 84.5143 29.105C86.0191 27.3083 87.8837 25.8873 90.1082 24.842C92.3653 23.7967 94.9987 23.274 98.0083 23.274C100.527 23.274 102.67 23.6007 104.436 24.254C106.236 24.8747 107.724 25.6913 108.902 26.704C110.112 27.684 111.077 28.7457 111.797 29.889C112.549 30.9997 113.105 32.0613 113.465 33.074C113.825 34.054 114.054 34.8707 114.152 35.524C114.283 36.1447 114.348 36.455 114.348 36.455H106.841C106.841 36.455 106.775 36.2427 106.644 35.818C106.546 35.3607 106.334 34.8217 106.006 34.201C105.679 33.5477 105.189 32.9107 104.534 32.29C103.913 31.6693 103.062 31.1467 101.983 30.722C100.936 30.2647 99.6275 30.036 98.0573 30.036C95.8002 30.036 93.9028 30.624 92.3653 31.8C90.8606 32.9433 89.7156 34.4133 88.9305 36.21C88.1781 38.0067 87.8019 39.885 87.8019 41.845C87.8019 43.805 88.1781 45.6997 88.9305 47.529C89.7156 49.3257 90.8606 50.812 92.3653 51.988C93.9028 53.1313 95.8002 53.703 98.0573 53.703C99.6275 53.703 100.936 53.4907 101.983 53.066C103.062 52.6413 103.913 52.1187 104.534 51.498C105.189 50.8447 105.679 50.2077 106.006 49.587C106.334 48.9337 106.546 48.3947 106.644 47.97C106.775 47.5453 106.841 47.333 106.841 47.333H114.348C114.348 47.333 114.283 47.6597 114.152 48.313C114.054 48.9337 113.825 49.7503 113.465 50.763C113.105 51.743 112.549 52.8047 111.797 53.948C111.077 55.0587 110.112 56.1203 108.902 57.133C107.724 58.113 106.236 58.9297 104.436 59.583C102.67 60.2037 100.527 60.514 98.0083 60.514Z" fill="white"/>
<path d="M119.661 60.024V22.784H127.119V37.778H127.365C127.659 37.2553 128.085 36.6673 128.641 36.014C129.229 35.3607 129.998 34.789 130.947 34.299C131.928 33.809 133.171 33.564 134.676 33.564C136.704 33.564 138.356 34.0377 139.632 34.985C140.908 35.8997 141.84 37.092 142.429 38.562C143.018 39.9993 143.312 41.5183 143.312 43.119V60.024H135.854V44.393C135.854 43.1517 135.51 42.0573 134.823 41.11C134.169 40.1627 133.106 39.689 131.634 39.689C130.522 39.689 129.638 39.9503 128.984 40.473C128.33 40.9957 127.855 41.6653 127.561 42.482C127.267 43.2987 127.119 44.1643 127.119 45.079V60.024H119.661Z" fill="white"/>
<path d="M159.826 33.564C161.494 33.564 162.868 33.8417 163.948 34.397C165.027 34.9197 165.845 35.4913 166.401 36.112C166.99 36.7327 167.35 37.1573 167.481 37.386H167.873V34.054H175.332V60.024H167.873V56.692H167.481C167.35 56.9207 166.99 57.3453 166.401 57.966C165.845 58.5867 165.027 59.1747 163.948 59.73C162.868 60.2527 161.494 60.514 159.826 60.514C157.896 60.514 156.211 60.1383 154.772 59.387C153.365 58.603 152.187 57.574 151.239 56.3C150.29 54.9933 149.57 53.5397 149.08 51.939C148.622 50.3383 148.393 48.705 148.393 47.039C148.393 45.373 148.622 43.7397 149.08 42.139C149.57 40.5383 150.29 39.101 151.239 37.827C152.187 36.5203 153.365 35.4913 154.772 34.74C156.211 33.956 157.896 33.564 159.826 33.564ZM161.985 39.591C160.644 39.591 159.515 39.9667 158.599 40.718C157.716 41.4367 157.045 42.3677 156.587 43.511C156.162 44.6543 155.949 45.8303 155.949 47.039C155.949 48.2477 156.162 49.4237 156.587 50.567C157.045 51.7103 157.716 52.6577 158.599 53.409C159.515 54.1277 160.644 54.487 161.985 54.487C163.326 54.487 164.438 54.1277 165.321 53.409C166.237 52.6577 166.908 51.7103 167.333 50.567C167.791 49.4237 168.02 48.2477 168.02 47.039C168.02 45.8303 167.791 44.6543 167.333 43.511C166.908 42.3677 166.237 41.4367 165.321 40.718C164.438 39.9667 163.326 39.591 161.985 39.591Z" fill="white"/>
<path d="M185.593 30.526C184.285 30.526 183.222 30.1177 182.404 29.301C181.586 28.4517 181.177 27.4553 181.177 26.312C181.177 25.1033 181.586 24.0907 182.404 23.274C183.222 22.4247 184.285 22 185.593 22C186.836 22 187.883 22.4247 188.734 23.274C189.584 24.0907 190.01 25.1033 190.01 26.312C190.01 27.4553 189.584 28.4517 188.734 29.301C187.883 30.1177 186.836 30.526 185.593 30.526ZM181.864 60.024V34.054H189.323V60.024H181.864Z" fill="white"/>
<path d="M195.697 60.024V34.054H203.155V37.778H203.401C203.695 37.2553 204.12 36.6673 204.677 36.014C205.265 35.3607 206.033 34.789 206.983 34.299C207.964 33.809 209.207 33.564 210.712 33.564C212.74 33.564 214.392 34.0377 215.668 34.985C216.944 35.8997 217.876 37.092 218.465 38.562C219.054 39.9993 219.348 41.5183 219.348 43.119V60.024H211.89V44.393C211.89 43.1517 211.546 42.0573 210.859 41.11C210.204 40.1627 209.142 39.689 207.67 39.689C206.557 39.689 205.674 39.9503 205.02 40.473C204.365 40.9957 203.891 41.6653 203.597 42.482C203.303 43.2987 203.155 44.1643 203.155 45.079V60.024H195.697Z" fill="white"/>
<path d="M230.395 60.024L222.347 34.054H229.806L234.467 50.91L239.522 34.054H246.293L251.347 50.91L256.009 34.054H263.467L255.42 60.024H247.52L242.907 44.834L238.295 60.024H230.395Z" fill="white"/>
<path d="M267.431 60.024V34.054H274.84V37.827H275.085C275.38 37.141 275.79 36.4713 276.312 35.818C276.836 35.1647 277.556 34.6257 278.471 34.201C279.387 33.7763 280.565 33.564 282.004 33.564C282.724 33.564 283.297 33.613 283.721 33.711C284.147 33.7763 284.359 33.809 284.359 33.809V41.159C284.359 41.159 284.114 41.11 283.623 41.012C283.166 40.914 282.561 40.865 281.808 40.865C279.486 40.865 277.752 41.502 276.607 42.776C275.462 44.0173 274.889 46.059 274.889 48.901V60.024H267.431Z" fill="white"/>
<path d="M293.555 30.526C292.246 30.526 291.182 30.1177 290.365 29.301C289.547 28.4517 289.139 27.4553 289.139 26.312C289.139 25.1033 289.547 24.0907 290.365 23.274C291.182 22.4247 292.246 22 293.555 22C294.798 22 295.844 22.4247 296.695 23.274C297.545 24.0907 297.971 25.1033 297.971 26.312C297.971 27.4553 297.545 28.4517 296.695 29.301C295.844 30.1177 294.798 30.526 293.555 30.526ZM289.826 60.024V34.054H297.284V60.024H289.826Z" fill="white"/>
<path d="M317.005 70.412C314.583 70.412 312.589 70.118 311.018 69.53C309.48 68.942 308.253 68.1907 307.338 67.276C306.422 66.394 305.751 65.512 305.327 64.63C304.901 63.748 304.622 62.9967 304.492 62.376C304.394 61.788 304.345 61.494 304.345 61.494H311.607C311.607 61.494 311.656 61.641 311.755 61.935C311.885 62.2617 312.13 62.621 312.491 63.013C312.85 63.4377 313.374 63.797 314.061 64.091C314.78 64.4177 315.729 64.581 316.907 64.581C318.935 64.581 320.423 64.0093 321.372 62.866C322.353 61.7227 322.844 60.22 322.844 58.358V55.614H322.501C322.173 56.1367 321.682 56.7083 321.029 57.329C320.373 57.9497 319.539 58.4723 318.526 58.897C317.512 59.3217 316.285 59.534 314.846 59.534C312.915 59.534 311.231 59.1747 309.792 58.456C308.352 57.7047 307.142 56.7083 306.161 55.467C305.211 54.2257 304.492 52.8373 304.002 51.302C303.543 49.7667 303.315 48.1823 303.315 46.549C303.315 44.9483 303.543 43.3803 304.002 41.845C304.492 40.277 305.211 38.8723 306.161 37.631C307.142 36.3897 308.352 35.4097 309.792 34.691C311.231 33.9397 312.915 33.564 314.846 33.564C316.285 33.564 317.512 33.7927 318.526 34.25C319.539 34.6747 320.373 35.1973 321.029 35.818C321.715 36.406 322.206 36.9777 322.501 37.533H322.844V34.054H330.303V58.358C330.303 60.514 329.828 62.5067 328.88 64.336C327.93 66.1653 326.475 67.6353 324.512 68.746C322.55 69.8567 320.047 70.412 317.005 70.412ZM316.907 53.654C318.281 53.654 319.409 53.311 320.292 52.625C321.208 51.939 321.895 51.057 322.353 49.979C322.811 48.8683 323.04 47.725 323.04 46.549C323.04 45.3403 322.811 44.197 322.353 43.119C321.895 42.041 321.208 41.159 320.292 40.473C319.409 39.787 318.281 39.444 316.907 39.444C315.565 39.444 314.436 39.787 313.521 40.473C312.638 41.159 311.967 42.041 311.509 43.119C311.05 44.197 310.822 45.3403 310.822 46.549C310.822 47.725 311.05 48.8683 311.509 49.979C311.967 51.057 312.638 51.939 313.521 52.625C314.436 53.311 315.565 53.654 316.907 53.654Z" fill="white"/>
<path d="M336.494 60.024V22.784H343.952V37.778H344.198C344.492 37.2553 344.916 36.6673 345.473 36.014C346.062 35.3607 346.83 34.789 347.78 34.299C348.761 33.809 350.004 33.564 351.509 33.564C353.537 33.564 355.189 34.0377 356.465 34.985C357.741 35.8997 358.673 37.092 359.262 38.562C359.851 39.9993 360.145 41.5183 360.145 43.119V60.024H352.687V44.393C352.687 43.1517 352.343 42.0573 351.656 41.11C351.001 40.1627 349.939 39.689 348.467 39.689C347.354 39.689 346.471 39.9503 345.817 40.473C345.162 40.9957 344.688 41.6653 344.394 42.482C344.099 43.2987 343.952 44.1643 343.952 45.079V60.024H336.494Z" fill="white"/>
<path d="M377.593 60.514C375.565 60.514 373.946 60.22 372.735 59.632C371.525 59.0113 370.609 58.2437 369.987 57.329C369.366 56.3817 368.956 55.3853 368.76 54.34C368.564 53.2947 368.466 52.331 368.466 51.449V39.983H364.05V34.054H368.466V27.635H375.924V34.054H381.469V39.983H375.924V51.253C375.924 52.331 376.203 53.164 376.758 53.752C377.347 54.34 378.313 54.634 379.654 54.634C380.242 54.634 380.782 54.585 381.273 54.487C381.763 54.389 382.009 54.34 382.009 54.34V60.073C382.009 60.073 381.567 60.1383 380.684 60.269C379.801 60.4323 378.77 60.514 377.593 60.514Z" fill="white"/>
<defs>
<clipPath id="clip0_1_73">
<rect width="69.3359" height="71.2891" fill="white"/>
</clipPath>
<clipPath id="clip1_1_73">
<rect width="69.3359" height="71.2891" fill="white"/>
</clipPath>
</defs>
</svg>
